<?xml version="1.0" encoding="UTF-8" standalone="no"?>
<svg
   xmlns:dc="http://purl.org/dc/elements/1.1/"
   xmlns:cc="http://creativecommons.org/ns#"
   xmlns:rdf="http://www.w3.org/1999/02/22-rdf-syntax-ns#"
   xmlns:svg="http://www.w3.org/2000/svg"
   xmlns="http://www.w3.org/2000/svg"
   xmlns:sodipodi="http://sodipodi.sourceforge.net/DTD/sodipodi-0.dtd"
   xmlns:inkscape="http://www.inkscape.org/namespaces/inkscape"
   version="1.1"
   x="0px"
   y="0px"
   viewBox="0 0 100 100"
   enable-background="new 0 0 100 100"
   xml:space="preserve"
   id="svg54"
   sodipodi:docname="drag-and-drop.svg"
   inkscape:version="0.92.5 (2060ec1f9f, 2020-04-08)"
   width="100"
   height="100"><metadata
     id="metadata60"><rdf:RDF><cc:Work
         rdf:about=""><dc:format>image/svg+xml</dc:format><dc:type
           rdf:resource="http://purl.org/dc/dcmitype/StillImage" /><dc:title></dc:title></cc:Work></rdf:RDF></metadata><defs
     id="defs58" /><sodipodi:namedview
     pagecolor="#ffffff"
     bordercolor="#666666"
     borderopacity="1"
     objecttolerance="10"
     gridtolerance="10"
     guidetolerance="10"
     inkscape:pageopacity="0"
     inkscape:pageshadow="2"
     inkscape:window-width="1920"
     inkscape:window-height="1022"
     id="namedview56"
     showgrid="false"
     inkscape:zoom="1.888"
     inkscape:cx="50"
     inkscape:cy="62.5"
     inkscape:window-x="0"
     inkscape:window-y="25"
     inkscape:window-maximized="1"
     inkscape:current-layer="svg54" /><g
     id="g54"><g
       transform="translate(2.688,-1)"
       id="g8"><g
         id="g6"><path
           inkscape:connector-curvature="0"
           id="path2"
           d="m 78.904,63.18 -7.894,-7.894 5.858,-2.844 c 0.401,-0.192 0.642,-0.609 0.615,-1.054 -0.022,-0.445 -0.318,-0.829 -0.736,-0.972 L 67.189,47.128 V 27.902 h 2.377 c 0.609,0 1.098,-0.489 1.098,-1.098 0,-0.604 -0.489,-1.098 -1.098,-1.098 H 67.189 V 15.319 c 0,-0.609 -0.494,-1.098 -1.098,-1.098 H 20.134 c -0.609,0 -1.098,0.489 -1.098,1.098 v 10.387 h -2.542 c -0.604,0 -1.098,0.494 -1.098,1.098 0,0.609 0.494,1.098 1.098,1.098 h 2.542 v 25.89 c 0,0.604 0.489,1.098 1.098,1.098 h 37.019 l 3.87,11.249 c 0.148,0.417 0.533,0.708 0.972,0.736 0.445,0.033 0.862,-0.214 1.054,-0.615 l 2.849,-5.858 7.889,7.895 c 0.209,0.203 0.489,0.318 0.78,0.318 0.055,0 0.115,-0.005 0.17,-0.016 0.033,-0.006 0.066,-0.011 0.099,-0.022 0.038,-0.006 0.077,-0.016 0.115,-0.033 0.011,0 0.022,-0.005 0.033,-0.011 0.132,-0.055 0.253,-0.137 0.357,-0.236 l 3.563,-3.563 c 0.203,-0.203 0.324,-0.483 0.324,-0.774 -10e-4,-0.291 -0.121,-0.571 -0.324,-0.78 z M 21.232,16.417 h 43.76 v 22.3 L 53.699,27.43 c -0.412,-0.412 -1.142,-0.412 -1.554,0 L 36.867,42.703 31.756,37.597 c -0.412,-0.412 -1.142,-0.412 -1.554,0 l -8.971,8.965 V 16.417 Z m 0,36.277 V 49.67 l 9.75,-9.745 5.111,5.111 c 0.412,0.412 1.136,0.412 1.548,0 L 52.92,29.758 64.992,41.825 v 4.546 l -9.997,-3.442 c -0.428,-0.148 -0.884,-0.011 -1.164,0.307 -0.005,0 -0.005,0 -0.011,0.005 -0.302,0.285 -0.423,0.73 -0.28,1.147 l 2.855,8.306 z m 53.335,13.27 -8.207,-8.207 c -0.253,-0.253 -0.609,-0.362 -0.961,-0.307 -0.351,0.06 -0.648,0.285 -0.807,0.604 l -2.355,4.859 -3.25,-9.443 c -0.011,-0.038 -0.022,-0.071 -0.038,-0.104 l -2.63,-7.653 17.2,5.918 -4.853,2.355 c -0.324,0.154 -0.549,0.456 -0.604,0.807 -0.06,0.351 0.055,0.708 0.302,0.961 l 8.213,8.207 z" /><path
           inkscape:connector-curvature="0"
           id="path4"
           d="m 75.341,68.297 c -0.104,0.104 -0.225,0.187 -0.357,0.236 0.132,-0.055 0.252,-0.137 0.357,-0.236 z" /></g></g><g
       transform="translate(0,-1)"
       id="g42"><g
         id="g12"><path
           inkscape:connector-curvature="0"
           id="path10"
           d="m 83.595,27.904 h -7.013 c -0.606,0 -1.098,-0.492 -1.098,-1.098 0,-0.606 0.492,-1.098 1.098,-1.098 h 7.013 c 0.606,0 1.098,0.492 1.098,1.098 0,0.606 -0.492,1.098 -1.098,1.098 z" /></g><g
         id="g16"><path
           inkscape:connector-curvature="0"
           id="path14"
           d="m 93.902,31.198 c -0.606,0 -1.098,-0.492 -1.098,-1.098 v -2.196 h -2.196 c -0.606,0 -1.098,-0.492 -1.098,-1.098 0,-0.606 0.492,-1.098 1.098,-1.098 h 3.294 C 94.508,25.708 95,26.2 95,26.806 V 30.1 c 0,0.607 -0.492,1.098 -1.098,1.098 z" /></g><g
         id="g20"><path
           inkscape:connector-curvature="0"
           id="path18"
           d="m 93.902,75.158 c -0.606,0 -1.098,-0.492 -1.098,-1.098 v -7.326 c 0,-0.606 0.492,-1.098 1.098,-1.098 0.606,0 1.098,0.491 1.098,1.098 v 7.326 c 0,0.607 -0.492,1.098 -1.098,1.098 z m 0,-14.653 c -0.606,0 -1.098,-0.492 -1.098,-1.098 V 52.08 c 0,-0.606 0.492,-1.098 1.098,-1.098 0.606,0 1.098,0.492 1.098,1.098 v 7.327 c 0,0.606 -0.492,1.098 -1.098,1.098 z m 0,-14.653 c -0.606,0 -1.098,-0.492 -1.098,-1.098 v -7.327 c 0,-0.606 0.492,-1.098 1.098,-1.098 0.606,0 1.098,0.492 1.098,1.098 v 7.327 c 0,0.606 -0.492,1.098 -1.098,1.098 z" /></g><g
         id="g24"><path
           inkscape:connector-curvature="0"
           id="path22"
           d="m 93.902,85.779 h -3.294 c -0.606,0 -1.098,-0.492 -1.098,-1.098 0,-0.606 0.492,-1.098 1.098,-1.098 h 2.196 v -2.196 c 0,-0.606 0.492,-1.098 1.098,-1.098 0.606,0 1.098,0.492 1.098,1.098 v 3.294 c 0,0.606 -0.492,1.098 -1.098,1.098 z" /></g><g
         id="g28"><path
           inkscape:connector-curvature="0"
           id="path26"
           d="m 84.361,85.779 h -6.247 c -0.606,0 -1.098,-0.492 -1.098,-1.098 0,-0.606 0.492,-1.098 1.098,-1.098 h 6.247 c 0.606,0 1.098,0.492 1.098,1.098 0,0.606 -0.492,1.098 -1.098,1.098 z m -12.495,0 h -6.247 c -0.606,0 -1.098,-0.492 -1.098,-1.098 0,-0.606 0.492,-1.098 1.098,-1.098 h 6.247 c 0.606,0 1.098,0.492 1.098,1.098 0,0.606 -0.492,1.098 -1.098,1.098 z m -12.495,0 h -6.247 c -0.606,0 -1.098,-0.492 -1.098,-1.098 0,-0.606 0.492,-1.098 1.098,-1.098 h 6.247 c 0.606,0 1.098,0.492 1.098,1.098 0,0.606 -0.492,1.098 -1.098,1.098 z m -12.495,0 h -6.247 c -0.606,0 -1.098,-0.492 -1.098,-1.098 0,-0.606 0.492,-1.098 1.098,-1.098 h 6.247 c 0.606,0 1.098,0.492 1.098,1.098 0,0.606 -0.491,1.098 -1.098,1.098 z m -12.494,0 h -6.247 c -0.606,0 -1.098,-0.492 -1.098,-1.098 0,-0.606 0.492,-1.098 1.098,-1.098 h 6.247 c 0.606,0 1.098,0.492 1.098,1.098 0,0.606 -0.492,1.098 -1.098,1.098 z m -12.495,0 H 15.64 c -0.606,0 -1.098,-0.492 -1.098,-1.098 0,-0.606 0.492,-1.098 1.098,-1.098 h 6.247 c 0.606,0 1.098,0.492 1.098,1.098 0,0.606 -0.492,1.098 -1.098,1.098 z" /></g><g
         id="g32"><path
           inkscape:connector-curvature="0"
           id="path30"
           d="M 9.392,85.779 H 6.098 C 5.492,85.779 5,85.287 5,84.681 v -3.294 c 0,-0.606 0.492,-1.098 1.098,-1.098 0.606,0 1.098,0.492 1.098,1.098 v 2.196 h 2.196 c 0.606,0 1.098,0.492 1.098,1.098 0,0.606 -0.492,1.098 -1.098,1.098 z" /></g><g
         id="g36"><path
           inkscape:connector-curvature="0"
           id="path34"
           d="M 6.098,75.158 C 5.492,75.158 5,74.667 5,74.06 v -7.327 c 0,-0.606 0.492,-1.098 1.098,-1.098 0.606,0 1.098,0.492 1.098,1.098 v 7.327 c 0,0.607 -0.492,1.098 -1.098,1.098 z m 0,-14.653 C 5.492,60.505 5,60.013 5,59.407 V 52.08 c 0,-0.606 0.492,-1.098 1.098,-1.098 0.606,0 1.098,0.492 1.098,1.098 v 7.327 c 0,0.606 -0.492,1.098 -1.098,1.098 z m 0,-14.654 C 5.492,45.851 5,45.36 5,44.753 v -7.326 c 0,-0.606 0.492,-1.098 1.098,-1.098 0.606,0 1.098,0.492 1.098,1.098 v 7.326 c 0,0.607 -0.492,1.098 -1.098,1.098 z" /></g><g
         id="g40"><path
           inkscape:connector-curvature="0"
           id="path38"
           d="M 6.098,31.198 C 5.492,31.198 5,30.707 5,30.1 V 26.806 C 5,26.2 5.492,25.708 6.098,25.708 h 3.294 c 0.606,0 1.098,0.492 1.098,1.098 0,0.606 -0.492,1.098 -1.098,1.098 H 7.196 V 30.1 c 0,0.607 -0.492,1.098 -1.098,1.098 z" /></g></g><g
       transform="translate(16.397,-1)"
       id="g48"><g
         id="g46"><path
           inkscape:connector-curvature="0"
           id="path44"
           d="m 33.603,32.895 c -2.999,0 -5.438,-2.44 -5.438,-5.438 0,-2.999 2.44,-5.438 5.438,-5.438 2.998,0 5.438,2.44 5.438,5.438 0,2.998 -2.439,5.438 -5.438,5.438 z m 0,-8.681 c -1.788,0 -3.242,1.455 -3.242,3.242 0,1.788 1.455,3.242 3.242,3.242 1.788,0 3.242,-1.455 3.242,-3.242 0,-1.787 -1.454,-3.242 -3.242,-3.242 z" /></g></g></g></svg>